<svg xmlns="http://www.w3.org/2000/svg" version="1.1" xmlns:xlink="http://www.w3.org/1999/xlink" xmlns:svgjs="http://svgjs.dev/svgjs" width="1000" height="1000" viewBox="0 0 1000 1000"><rect width="1000" height="1000" fill="#000000"></rect><g transform="matrix(0.7,0,0,0.7,149.6500086781981,149.65000000000003)"><svg viewBox="0 0 280 280" data-background-color="#fafafa" preserveAspectRatio="xMidYMid meet" height="1000" width="1000" xmlns="http://www.w3.org/2000/svg" xmlns:xlink="http://www.w3.org/1999/xlink"><g id="tight-bounds" transform="matrix(1,0,0,1,0.13999652872075785,0.13999999999998636)"><svg viewBox="0 0 279.72 279.72" height="279.72" width="279.72"><g><svg viewBox="0 0 279.72 279.72" height="279.72" width="279.72"><g><svg viewBox="0 0 279.72 279.72" height="279.72" width="279.72"><g id="textblocktransform"><svg viewBox="0 0 279.72 279.72" height="279.72" width="279.72" id="textblock"><g><svg viewBox="0 0 279.72 279.72" height="279.72" width="279.72"><g transform="matrix(1,0,0,1,57.446704652707865,57.446704652707865)"><svg viewBox="0 0 164.8265906945843 164.8265906945843" height="164.8265906945843" width="164.8265906945843"><g><circle r="82" cx="82.41329534729215" cy="82.41329534729215" fill="#ffffff" data-fill-palette-color="accent"></circle><svg xmlns="http://www.w3.org/2000/svg" viewBox="20 20.173631984616488 60.018743579525974 59.668848995350714" x="24.72398860418764" y="24.723988604187646" height="115.378613486209" width="115.378613486209" class="icon-kg-0" data-fill-palette-color="quaternary" id="kg-0"><g data-name="Calque 2" fill="#fafafa" data-fill-palette-color="quaternary"><path d="M23.82 23.07A1.82 1.82 0 1 1 22 24.88 1.82 1.82 0 0 1 23.82 23.07Zm0 5.58a3.73 3.73 0 0 0 2-0.56c2.07 1.44 9.08 6.45 10.21 7.14a6.25 6.25 0 0 0 3.19 1.25c0.63 0 2 0.06 4.13 0.06A2.75 2.75 0 0 0 45.8 38a2.76 2.76 0 1 0-2.69-3.32c-1.94 0-3.26 0-3.82-0.06A3.81 3.81 0 0 1 37 33.71c-1-0.63-7.64-5.39-9.9-7A4 4 0 0 0 27.57 25a3.7 3.7 0 0 0-3.7-3.7 3.74 3.74 0 0 0-3.7 3.7A3.6 3.6 0 0 0 23.82 28.64Z" fill="#000000" data-fill-palette-color="quaternary"></path><path d="M22.13 44.61a1.82 1.82 0 1 1 1.82 1.82A1.78 1.78 0 0 1 22.13 44.61Zm5.39 0.94H33a2.71 2.71 0 0 0 2.57 1.82 2.76 2.76 0 0 0 0-5.51A2.71 2.71 0 0 0 33 43.67H27.52a3.76 3.76 0 0 0-3.57-2.76 3.7 3.7 0 0 0-3.7 3.7 3.74 3.74 0 0 0 3.7 3.7A3.52 3.52 0 0 0 27.52 45.55Z" fill="#000000" data-fill-palette-color="quaternary"></path><path d="M28.33 49.87a1.82 1.82 0 1 1-1.82 1.82A1.82 1.82 0 0 1 28.33 49.87Zm0 5.58a3.7 3.7 0 0 0 3.57-2.76H33a2.72 2.72 0 0 0 2.57 1.82 2.76 2.76 0 0 0 0-5.51A2.71 2.71 0 0 0 33 50.81H31.9a3.76 3.76 0 0 0-3.57-2.76 3.7 3.7 0 0 0 0 7.39Z" fill="#000000" data-fill-palette-color="quaternary"></path><path d="M23.7 75.24a1.82 1.82 0 1 1 1.82-1.82A1.78 1.78 0 0 1 23.7 75.24Zm1.06-5.39V63.4c0-2.94 1-3.57 2.69-3.57 2.07 0 4.38 0 5.39 0.06a2.73 2.73 0 0 0 2.63 1.82 2.76 2.76 0 1 0 0-5.51A2.71 2.71 0 0 0 32.9 58c-1.06 0-3.38-0.06-5.39-0.06-4.64 0-4.64 4.07-4.64 5.45v6.39A3.76 3.76 0 0 0 20 73.42a3.7 3.7 0 0 0 3.7 3.7 3.74 3.74 0 0 0 3.7-3.7A3.58 3.58 0 0 0 24.76 69.86Z" fill="#000000" data-fill-palette-color="quaternary"></path><path d="M75.06 75.24a1.82 1.82 0 1 1 1.82-1.82A1.82 1.82 0 0 1 75.06 75.24Zm0.81-5.45V63.4c0-1.31 0-5.45-4.57-5.45-2.07 0-4.38 0-5.39 0.06a2.71 2.71 0 0 0-2.57-1.82 2.76 2.76 0 1 0 0 5.51A2.85 2.85 0 0 0 66 59.9c1.06 0 3.38-0.06 5.39-0.06C73 59.83 74 60.4 74 63.4v6.45a3.7 3.7 0 0 0 1 7.26 3.71 3.71 0 0 0 0.82-7.33Z" fill="#000000" data-fill-palette-color="quaternary"></path><path d="M72.42 23.69A1.57 1.57 0 1 1 74 25.26 1.59 1.59 0 0 1 72.42 23.69ZM63.59 47.37A2.76 2.76 0 0 0 66 45.86h4.57c4.26 0 4.26-3.76 4.26-5V27a3.46 3.46 0 1 0-4.26-3.38A3.44 3.44 0 0 0 73.05 27v13.9c0 2.63-0.82 3.13-2.38 3.13H66.35a2.75 2.75 0 0 0-5.45 0.56A2.63 2.63 0 0 0 63.59 47.37Z" fill="#000000" data-fill-palette-color="quaternary"></path><path d="M76.37 50.13a1.82 1.82 0 1 1-1.82 1.82A1.78 1.78 0 0 1 76.37 50.13Zm-13 4.57A2.71 2.71 0 0 0 66 52.88h6.77a3.76 3.76 0 0 0 3.57 2.76A3.7 3.7 0 1 0 72.74 51H66a2.71 2.71 0 0 0-2.57-1.82 2.78 2.78 0 0 0-2.76 2.76A2.73 2.73 0 0 0 63.4 54.7Z" fill="#000000" data-fill-palette-color="quaternary"></path><rect x="40.48" y="39.98" width="18.04" height="23.93" rx="3.95" ry="3.95" fill="#000000" data-fill-palette-color="quaternary"></rect><path d="M40.48 24.45a1.82 1.82 0 1 1-1.82 1.82A1.86 1.86 0 0 1 40.48 24.45Zm0 5.58A3.7 3.7 0 0 0 44 27.33h6.26c0.69 0 1.31 0 1.57 0.25s0.31 0.44 0.31 1.25c0 1.13 0 2.63-0.06 3.82a2.76 2.76 0 1 0 3.76 2.57 2.76 2.76 0 0 0-1.94-2.63c0-1.19 0.06-2.63 0.06-3.76a3.32 3.32 0 0 0-0.82-2.57 3.69 3.69 0 0 0-2.88-0.75h-6.2A3.71 3.71 0 1 0 40.48 30Z" fill="#000000" data-fill-palette-color="quaternary"></path><path d="M35 76.18a1.82 1.82 0 1 1-1.82-1.82A1.78 1.78 0 0 1 35 76.18ZM45.8 66A2.71 2.71 0 0 0 43.3 67.6h-7c-1.31 0-4.07 0-4.07 3.7v1.25a3.68 3.68 0 0 0 0.88 7.27 3.74 3.74 0 0 0 3.7-3.7 3.7 3.7 0 0 0-2.69-3.57c0-0.37-0.06-0.82-0.06-1.25 0-1.69 0.56-1.82 2.19-1.82h6.83a2.69 2.69 0 0 0 2.63 2 2.78 2.78 0 0 0 2.76-2.76A2.69 2.69 0 0 0 45.8 66Z" fill="#000000" data-fill-palette-color="quaternary"></path><path d="M62.71 78a1.82 1.82 0 0 1-1.82-1.82 1.87 1.87 0 0 1 1.82-1.88 1.82 1.82 0 0 1 1.82 1.82A1.87 1.87 0 0 1 62.71 78Zm0.88-5.45V71.29c0-3.7-2.76-3.7-4.07-3.7H55.7A2.67 2.67 0 0 0 53.2 66a2.76 2.76 0 1 0 2.63 3.51h3.7c1.63 0 2.19 0.12 2.19 1.82a8.09 8.09 0 0 1-0.06 1.25 3.7 3.7 0 1 0 4.7 3.57A3.57 3.57 0 0 0 63.59 72.55Z" fill="#000000" data-fill-palette-color="quaternary"></path></g></svg></g></svg></g><g><path d="M30.747 94.058c-0.668 1.808-1.306 3.282-1.914 4.422v0c-0.79 1.47-1.705 2.729-2.744 3.777v0c-0.14 0.136-0.356 0.326-0.649 0.57-0.295 0.251-0.565 0.455-0.811 0.612v0c-1.09 0.617-2.219 1.036-3.388 1.257v0c-0.668 0.286-1.508 0.459-2.52 0.52v0c-2.184 0.026-4.598-0.45-7.244-1.427v0c-3.114-1.15-5.609-2.799-7.485-4.946v0c-1.822-1.948-3.022-4.089-3.6-6.423-0.581-2.344-0.516-4.734 0.196-7.171v0l0.14-0.499 0.197-0.535c0.787-2.131 2.072-4.262 3.856-6.392v0c0.186-0.179 0.58-0.577 1.183-1.193 0.596-0.62 1.218-1.166 1.865-1.64v0l5.044 2.695-1.509 2.198c-0.539 0.79-0.95 1.568-1.233 2.334v0c-0.565 1.531-0.414 2.887 0.454 4.07v0c0.896 1.268 2.697 2.402 5.402 3.401v0c0.871 0.322 1.5 0.505 1.888 0.551v0c1.761 0.53 3.172 0.617 4.234 0.259v0c0.937-0.366 1.567-0.985 1.889-1.856v0c0.302-0.818 0.382-1.827 0.24-3.026v0c-0.085-1.029-0.293-2.192-0.622-3.492v0l6.873 2.066c0.588 1.432 0.915 3.105 0.981 5.018v0c0.042 1.815-0.199 3.432-0.723 4.85z" fill="#ffffff" data-fill-palette-color="primary"></path><path d="M92.726 31.326c-0.212 0.095-0.516 0.199-0.911 0.314v0c-0.209 0.032-0.513 0.136-0.911 0.314v0c-1.015 0.453-2.365 0.785-4.049 0.997v0l-0.28 0.125c-0.186 0.083-0.41 0.117-0.67 0.102v0c-0.081-0.026-0.168-0.04-0.263-0.044-0.097-0.011-0.217-0.03-0.361-0.059v0l-1.053-0.108c-0.997-0.094-1.981-0.41-2.952-0.947-0.974-0.544-1.866-1.224-2.677-2.041v0c-1.524-1.484-2.708-3.17-3.55-5.058v0c-0.937-2.1-1.414-4.31-1.431-6.628v0c-0.005-2.447 0.482-4.608 1.463-6.486v0c1.086-2.071 2.651-3.562 4.693-4.472v0c0.636-0.284 1.139-0.477 1.509-0.581v0c-0.023-0.051 0.007-0.096 0.091-0.133v0l0.115-0.051c1.863-0.831 3.552-1.507 5.067-2.029v0c1.336-0.372 2.664-0.503 3.985-0.391v0c2.756 0.465 4.973 1.325 6.648 2.58v0c1.813 1.425 3.283 3.399 4.409 5.923v0c1.126 2.524 1.584 5.158 1.375 7.9v0l-0.111 0.812c-0.038 0.209-0.069 0.32-0.095 0.332v0l-0.03 0.244-0.206 0.288c-0.384 2.212-1.597 4.139-3.637 5.781v0c-1.401 1.002-3.457 2.108-6.168 3.316zM92.068 28.039c0.238-0.106 0.359-0.334 0.366-0.683v0c0.106-0.625-0.042-1.675-0.447-3.151v0c-0.08-0.249-0.254-0.811-0.52-1.685-0.257-0.871-0.534-1.672-0.829-2.403v0c-0.696-1.854-1.138-2.992-1.327-3.416v0l-0.408-0.916-0.142-0.318c-0.427-0.957-0.837-1.764-1.23-2.42v0c-0.564-1.058-1.107-1.851-1.628-2.381v0c-0.387-0.212-0.645-0.29-0.773-0.233v0c-0.27 0.12-0.435 0.433-0.495 0.937v0c-0.057 0.511 0.083 1.326 0.421 2.446v0l2.006 6.752 0.357 0.8 0.232 0.52c0.579 1.074 0.946 1.784 1.1 2.131v0l0.507 0.93 0.683 1.22c0.095 0.212 0.207 0.385 0.336 0.52v0l1.091 1.281c0.074 0.098 0.184 0.145 0.329 0.142 0.139 0 0.262-0.025 0.371-0.073z" fill="#ffffff" data-fill-palette-color="primary"></path><path d="M188.082 31.322c-1.791-0.712-3.248-1.386-4.373-2.022v0c-1.45-0.826-2.686-1.772-3.709-2.836v0c-0.132-0.143-0.317-0.364-0.554-0.663-0.244-0.301-0.441-0.576-0.591-0.826v0c-0.59-1.105-0.981-2.244-1.174-3.418v0c-0.269-0.675-0.422-1.519-0.458-2.532v0c0.028-2.184 0.563-4.586 1.605-7.207v0c1.226-3.085 2.936-5.539 5.128-7.361v0c1.992-1.774 4.162-2.921 6.511-3.441 2.358-0.524 4.745-0.4 7.163 0.373v0l0.496 0.151 0.529 0.211c2.111 0.839 4.21 2.176 6.295 4.012v0c0.174 0.19 0.562 0.594 1.165 1.212 0.605 0.611 1.136 1.246 1.593 1.905v0l-2.818 4.976-2.161-1.563c-0.777-0.559-1.545-0.989-2.303-1.29v0c-1.516-0.603-2.876-0.485-4.079 0.354v0c-1.29 0.865-2.467 2.637-3.533 5.317v0c-0.343 0.863-0.542 1.487-0.597 1.874v0c-0.573 1.747-0.694 3.156-0.363 4.226v0c0.343 0.946 0.946 1.591 1.808 1.934v0c0.81 0.322 1.817 0.427 3.02 0.315v0c1.03-0.06 2.199-0.239 3.505-0.537v0l-2.234 6.82c-1.446 0.553-3.126 0.839-5.04 0.858v0c-1.815-0.003-3.426-0.283-4.831-0.842z" fill="#ffffff" data-fill-palette-color="primary"></path><path d="M249.27 94.824c-0.089-0.214-0.186-0.52-0.292-0.918v0c-0.027-0.21-0.124-0.516-0.291-0.919v0c-0.427-1.026-0.726-2.383-0.897-4.072v0l-0.118-0.283c-0.078-0.188-0.107-0.413-0.086-0.672v0c0.028-0.08 0.045-0.167 0.051-0.262 0.013-0.097 0.035-0.217 0.068-0.359v0l0.134-1.05c0.119-0.994 0.459-1.97 1.02-2.928 0.567-0.96 1.269-1.836 2.105-2.626v0c1.521-1.487 3.236-2.629 5.145-3.425v0c2.123-0.885 4.343-1.307 6.661-1.267v0c2.446 0.055 4.595 0.596 6.448 1.622v0c2.043 1.137 3.495 2.738 4.355 4.802v0c0.268 0.643 0.449 1.15 0.543 1.523v0c0.052-0.022 0.095 0.01 0.131 0.094v0l0.049 0.117c0.785 1.883 1.419 3.588 1.903 5.116v0c0.339 1.344 0.437 2.675 0.292 3.992v0c-0.533 2.744-1.447 4.938-2.742 6.583v0c-1.469 1.778-3.479 3.198-6.03 4.262v0c-2.551 1.063-5.195 1.456-7.932 1.18v0l-0.809-0.132c-0.208-0.043-0.318-0.077-0.329-0.103v0l-0.243-0.035-0.283-0.214c-2.202-0.439-4.098-1.698-5.689-3.778v0c-0.967-1.426-2.022-3.508-3.164-6.248zM252.573 94.248c0.1 0.24 0.325 0.368 0.673 0.382v0c0.622 0.122 1.676-0.001 3.161-0.369v0c0.251-0.074 0.817-0.234 1.698-0.478 0.877-0.236 1.684-0.492 2.422-0.77v0c1.87-0.65 3.02-1.064 3.448-1.243v0l0.925-0.385 0.322-0.134c0.967-0.403 1.784-0.793 2.45-1.17v0c1.071-0.538 1.878-1.061 2.42-1.568v0c0.222-0.382 0.306-0.638 0.252-0.768v0c-0.114-0.273-0.422-0.445-0.925-0.518v0c-0.509-0.07-1.328 0.05-2.455 0.361v0l-6.8 1.839-0.808 0.337-0.526 0.219c-1.088 0.552-1.807 0.902-2.158 1.048v0l-0.941 0.483-1.237 0.653c-0.214 0.089-0.39 0.197-0.528 0.323v0l-1.307 1.059c-0.1 0.072-0.15 0.18-0.15 0.326-0.003 0.139 0.018 0.263 0.064 0.373z" fill="#ffffff" data-fill-palette-color="primary"></path><path d="M2.704 188.823c-0.149-0.387 0.005-0.782 0.462-1.182v0c0.758-0.773 2.351-1.626 4.78-2.559v0c2.344-0.9 5.056-1.892 8.135-2.977v0c0.988-0.349 2.504-0.916 4.546-1.7v0l0.118-0.192-1.785-4.649c-0.139-0.361-0.048-0.724 0.272-1.088 0.326-0.366 0.833-0.745 1.519-1.136v0c0.781-0.458 1.956-0.988 3.525-1.591v0l0.581-0.223c0.282-0.108 0.511-0.181 0.685-0.218v0l0.63-0.242 0.374-0.144c0.171-0.066 0.35-0.04 0.538 0.076 0.19 0.123 0.358 0.284 0.503 0.485v0c0.187 0.252 0.388 0.657 0.602 1.216v0l1.221 3.181c0.267 0.696 0.458 1.233 0.574 1.61v0l0.554 1.562 5.793 15.088c0.418 1.09 0.679 1.807 0.781 2.152v0c0.02 0.15 0.065 0.356 0.135 0.615 0.07 0.26 0.084 0.465 0.044 0.616v0c-0.012 0.223-0.072 0.382-0.179 0.476-0.11 0.087-0.289 0.179-0.538 0.274v0l-6.914 2.655c-0.309 0.118-0.567 0.074-0.774-0.132v0c-0.125-0.148-0.24-0.36-0.346-0.636v0l-0.514-1.339-0.534-1.389c-0.247-0.643-0.405-1.144-0.474-1.502v0l-0.481-1.25c-0.098-0.256-0.208-0.376-0.33-0.36v0c-0.026 0.01-0.067 0.011-0.123 0.003-0.049-0.011-0.104-0.005-0.163 0.017v0l-0.62 0.238-1.428 0.549c-0.42 0.161-0.748 0.268-0.985 0.321v0c-0.808 0.31-2.602 0.935-5.382 1.875v0l-1.291 0.405c-1.198 0.392-2.07 0.663-2.615 0.812v0l-3.989 1.531c-0.945 0.363-1.619 0.395-2.019 0.098v0c-0.283-0.306-0.464-0.522-0.544-0.651v0l-0.444-1.038c-0.418-1.09-0.743-1.847-0.973-2.271v0l-1.726-4.377c-0.243-0.555-0.643-1.557-1.201-3.009z" fill="#ffffff" data-fill-palette-color="primary"></path><path d="M74.197 270.903c-0.051-0.023-0.066-0.095-0.043-0.215v0c-0.084-0.33-0.088-0.693-0.012-1.091v0c-0.024-0.172-0.012-0.379 0.034-0.62v0c-0.024-0.603 0.103-1.366 0.383-2.289v0c0.448-1.302 0.836-2.322 1.165-3.061v0c0.114-0.342 0.299-0.802 0.556-1.381v0l0.437-0.983c0.363-0.816 0.636-1.465 0.819-1.945v0c0.191-0.5 0.61-1.476 1.256-2.928v0c1.726-3.882 3.137-6.837 4.232-8.867v0c0.149-0.334 0.725-0.374 1.728-0.121v0l1.234 0.549 1.021 0.454c1.555 0.692 2.707 1.235 3.456 1.629v0c1.107 0.592 2.248 1.15 3.424 1.673v0c0.276 0.123 0.488 0.201 0.634 0.236v0l0.617 0.274 0.129 0.254c0.985 0.207 1.968 0.498 2.949 0.872 0.983 0.368 2.159 0.856 3.528 1.465v0c0.058 0.026 0.107 0.098 0.147 0.216v0l1.311 0.583c0.218 0.097 0.338 0.296 0.357 0.598 0.011 0.305-0.045 0.707-0.167 1.207v0c-0.048 0.402-0.162 0.875-0.342 1.418v0c-0.194 0.73-0.297 1.222-0.311 1.478v0c-0.343 0.771-0.653 1.095-0.929 0.972v0c-0.026-0.011-0.046-0.07-0.06-0.176v0l-0.142-0.121c-0.13-0.089-0.288-0.14-0.475-0.154v0c-0.204 0.009-0.403-0.029-0.595-0.114v0c-0.161-0.071-0.277-0.173-0.349-0.306v0c-0.044-0.058-0.159-0.128-0.345-0.211v0c-0.251-0.111-0.558-0.198-0.924-0.26v0c-0.124-0.016-0.354-0.069-0.691-0.158-0.341-0.082-0.713-0.213-1.119-0.393v0c-1.176-0.523-2.036-0.875-2.579-1.055v0c-0.313-0.109-0.64-0.154-0.979-0.135v0l0.039-0.087c-0.109-0.049-0.264 0.048-0.464 0.29v0c-0.399 0.377-0.81 0.964-1.233 1.761v0c-0.134 0.233-0.269 0.5-0.403 0.802v0c-0.131 0.296-0.173 0.519-0.126 0.672 0.048 0.152 0.181 0.277 0.4 0.374v0c0.161 0.071 0.32 0.077 0.477 0.016v0c0.058 0.026 0.121 0.073 0.191 0.142 0.066 0.06 0.116 0.129 0.151 0.206v0l3.489 1.552c0.049-0.04 0.104-0.061 0.168-0.064 0.072-0.006 0.134 0.002 0.185 0.024v0c0.276 0.123 0.463 0.256 0.561 0.4v0c0.13 0.158 0.421 0.387 0.872 0.688v0c0.276 0.123 0.433 0.289 0.471 0.498v0c0.049 0.253 0.037 0.463-0.038 0.63v0l-0.332 3.085c-0.117 0.471-0.657 0.578-1.62 0.319v0c-0.569-0.122-1.593-0.512-3.071-1.17v0l-1.764-0.784-1.224-0.544c-0.386-0.171-0.683-0.281-0.893-0.328-0.204-0.044-0.371 0.004-0.504 0.145v0c-0.169 0.086-0.321 0.281-0.455 0.583v0l-0.073 0.164c-0.06 0.135-0.09 0.237-0.09 0.306v0l-0.437 0.879c-0.111 0.181-0.253 0.465-0.425 0.851v0l-0.18 0.405-0.167 0.375-0.107 0.241c1.227 0.546 2.502 1.063 3.825 1.551v0c1.294 0.483 2.555 0.997 3.782 1.544v0c0.084 0.037 0.127 0.13 0.13 0.277-0.003 0.145-0.04 0.298-0.111 0.458v0c-0.016 0.193-0.068 0.386-0.153 0.579v0c-0.131 0.434-0.221 0.852-0.27 1.254v0l-0.238 1.314-0.364 0.82-0.056 0.125-0.145 0.328-0.457 0.143-0.289-0.128-0.125-0.056c-0.296-0.131-0.479-0.229-0.552-0.292v0c-0.058-0.095-0.141-0.167-0.251-0.215v0c-0.063 0.003-0.162 0.009-0.296 0.018-0.132 0.003-0.253 0.015-0.362 0.036v0l0.09-0.203-0.509-0.18-0.617-0.274c-0.109-0.049-0.18-0.115-0.212-0.199v0l-0.311-0.184c-1.009-0.449-1.762-0.668-2.259-0.658v0z" fill="#ffffff" data-fill-palette-color="primary"></path><path d="M195.345 276.977c-2.472 0.919-4.589 1.451-6.352 1.596v0c-2.347 0.205-4.425-0.317-6.232-1.566v0c-2.017-1.388-3.692-3.876-5.026-7.461v0c-0.814-2.189-1.253-4.269-1.319-6.241-0.059-1.974 0.248-3.773 0.92-5.396v0c0.684-1.59 1.653-2.971 2.906-4.142 1.259-1.174 2.759-2.084 4.5-2.731v0c2.914-1.083 6.282-1.297 10.105-0.64v0l1.197 4.913-1.037 0.149c-0.122 0.015-0.594 0.078-1.415 0.188-0.819 0.117-1.539 0.291-2.159 0.522v0c-1.318 0.49-2.134 1.304-2.446 2.44v0c-0.42 1.432-0.166 3.397 0.763 5.896v0c0.76 2.044 1.627 3.477 2.601 4.3v0c0.884 0.662 1.804 0.815 2.759 0.46v0c0.672-0.25 1.374-0.766 2.104-1.548v0c0.713-0.745 1.371-1.549 1.973-2.411v0l2.646 5.815c-0.639 1.288-1.575 2.465-2.806 3.531v0c-1.084 1.041-2.311 1.816-3.682 2.326z" fill="#ffffff" data-fill-palette-color="primary"></path><path d="M270.19 205.842c-0.509 1.151-0.965 2.103-1.366 2.856-0.396 0.756-0.842 1.435-1.34 2.038v0c-0.048 0.109-0.145 0.163-0.29 0.16-0.148 0.004-0.256 0.006-0.325 0.006v0c-0.146-0.034-0.316-0.094-0.509-0.179v0c-2.84-1.056-5.055-1.854-6.646-2.396v0c-1.867-0.664-4.155-1.595-6.863-2.792v0l-1.023-0.452-1.546-0.73-1.805-0.902-1.015-0.495c-0.175-0.108-0.469-0.253-0.88-0.435v0l-1.563-0.691c-0.521-0.23-0.856-0.394-1.006-0.491v0c-0.084-0.037-0.101-0.11-0.053-0.219v0c0.111-0.251 0.153-0.494 0.126-0.729v0c0.037-0.084 0.089-0.218 0.156-0.404 0.064-0.179 0.14-0.334 0.228-0.464v0l0.597-1.351 0.965-2.181 0.524-1.187 1.016-2.296c0.219-0.495 0.395-0.859 0.529-1.093v0l0.584-1.218c0.134-0.302 0.256-0.518 0.367-0.645 0.104-0.131 0.242-0.208 0.414-0.232v0c0.121-0.047 0.312-0.027 0.574 0.058 0.256 0.082 0.535 0.19 0.837 0.324v0l0.328 0.145 0.569 0.251c0.277 0.122 0.477 0.192 0.601 0.208v0l0.405 0.179 0.289 0.128c0.121 0.023 0.265 0.071 0.432 0.145v0l1.209 0.58c0.262 0.154 0.654 0.347 1.175 0.578v0c0.296 0.131 0.511 0.191 0.646 0.182v0c0.178-0.021 0.303-0.112 0.374-0.273v0c0.026-0.058 0.058-0.209 0.097-0.454v0c0.034-0.077 0.07-0.192 0.107-0.345 0.034-0.146 0.088-0.303 0.161-0.47v0l0.18-0.405c0.111-0.112 0.246-0.349 0.405-0.709v0c0.06-0.135 0.104-0.269 0.132-0.403 0.028-0.134 0.067-0.255 0.115-0.365v0c0.111-0.251 0.137-0.389 0.08-0.414v0l-1.679-0.743-0.618-0.273c-0.412-0.182-0.734-0.34-0.967-0.474v0l-1.148-0.507c-0.265-0.148-0.642-0.33-1.131-0.546v0c-0.47-0.208-0.779-0.36-0.928-0.457v0l-0.618-0.273 0.055-0.126 0.09-0.202c0.074-0.167 0.056-0.275-0.053-0.324v0l0.87-1.968c0.364-0.823 0.663-1.429 0.896-1.818v0c0.371-0.682 0.653-1.242 0.847-1.679v0l1.056-2.625c0.131-0.434 0.33-0.954 0.597-1.558v0l0.469-1.062c0.242-0.547 0.46-0.892 0.655-1.037 0.195-0.145 0.511-0.12 0.948 0.073v0l3.242 1.434c0.547 0.242 0.978 0.448 1.295 0.619v0l0.963 0.483c0.437 0.193 1.085 0.511 1.944 0.952v0l0.677 0.345 0.674 0.252 12.832 6.17c0.077 0.034 0.219 0.193 0.424 0.476v0c0.145 0.264 0.182 0.476 0.111 0.637v0l-1.271 2.875c-0.472 1.068-0.98 2.104-1.525 3.109v0c-0.327 0.67-0.794 1.691-1.4 3.061v0l-0.307 0.695c-0.171 0.386-0.424 0.585-0.76 0.598v0c-0.402-0.047-0.895-0.184-1.479-0.412v0l-6.957-2.58-0.179 0.406c-0.29 0.656-0.515 1.13-0.674 1.42v0c-0.18 0.251-0.27 0.377-0.271 0.377v0l-0.742 1.679c-0.048 0.109-0.036 0.195 0.036 0.258 0.069 0.069 0.149 0.124 0.239 0.163 0.096 0.043 0.174 0.077 0.232 0.103v0l6.812 3.011 0.781 0.346c0.084 0.037 0.152 0.083 0.205 0.137 0.059 0.057 0.115 0.097 0.166 0.119v0c0.072 0.063 0.084 0.149 0.036 0.258v0c-0.014 0.032-0.02 0.08-0.017 0.143 0.007 0.072 0.006 0.152-0.002 0.241v0c-0.449 1.016-0.831 1.993-1.146 2.931v0z" fill="#ffffff" data-fill-palette-color="primary"></path><path d="M3.749 140.266c0-1.92 1.557-3.477 3.478-3.477 1.92 0 3.477 1.557 3.477 3.477 0 1.92-1.557 3.477-3.477 3.477-1.92 0-3.477-1.557-3.478-3.477z" fill="#ffffff" data-fill-palette-color="primary"></path><path d="M269.342 140.266c0-1.92 1.557-3.477 3.478-3.477 1.92 0 3.477 1.557 3.477 3.477 0 1.92-1.557 3.477-3.477 3.477-1.92 0-3.477-1.557-3.478-3.477z" fill="#ffffff" data-fill-palette-color="primary"></path></g></svg></g></svg></g></svg></g></svg></g><defs></defs></svg><rect width="279.72" height="279.72" fill="none" stroke="none" visibility="hidden"></rect></g></svg></g></svg>